.
..............................Site Info...........................

 -   http://www.scenetime.com  *_*   

SceneTime is going to Close sign up on march/1, hurry up! get in before the doors are closed.

     We care to share . Join us on  http://www.scenetime.com 

    Be the first to get new release at  http://www.scenetime.com

        Seed back for speed


...................................NFO:.................................................[pre][IMG]http://i.imgur.com/OaH8M.jpg[/IMG]

*******************************************************************************
                     The.Grey.2012.DVDSCR.XviD.AC3-PRESTiGE
*******************************************************************************


[color=red]General Information:[/color]

Complete name                            : The.Grey.2012.DVDSCR.XviD.AC3-PRESTiGE
Format                                   : AVI
Format/Info                              : Audio Video Interleave
File size                                : 1.10 GiB
Duration                                 : 1h 56mn
Overall bit rate                         : 1 344 Kbps
Language                                 : English
Subs                                     : N/A
Source                                   : Video = SxVATKA.2011 (RUSSiAN) / Audio = CrEwSaDe  THANKS
Encoder                                  : akosipalos

[color=lime]iMDB:[/color] http://www.imdb.com/title/tt1601913/

[color=red]Video[/color]

ID                                       : 0
Format                                   : MPEG-4 Visual
Format profile                           : Advanced Simple@L5
Format settings, BVOP                    : 2
Format settings, QPel                    : No
Format settings, GMC                     : No warppoints
Format settings, Matrix                  : Default (H.263)
Codec ID                                 : XVID
Codec ID/Hint                            : XviD
Duration                                 : 1h 56mn
Bit rate                                 : 1 210 Kbps
Width                                    : 720 pixels
Height                                   : 304 pixels
Display aspect ratio                     : 2.35:1
Frame rate                               : 25.000 fps
Color space                              : YUV
Chroma subsampling                       : 4:2:0
Bit depth                                : 8 bits
Scan type                                : Progressive
Compression mode                         : Lossy
Bits/(Pixel*Frame)                       : 0.221
Stream size                              : 1 012 MiB (90%)
Writing library                          : XviD 1.2.1 (UTC 2008-12-04)

[color=red]Audio[/color]

ID                                       : 1
Format                                   : MPEG Audio
Format version                           : Version 1
Format profile                           : Layer 3
Mode                                     : Joint stereo
Mode extension                           : MS Stereo
Codec ID                                 : 55
Codec ID/Hint                            : MP3
Duration                                 : 1h 56mn
Bit rate mode                            : Constant
Bit rate                                 : 128 Kbps
Channel(s)                               : 2 channels
Sampling rate                            : 48.0 KHz
Compression mode                         : Lossy
Stream size                              : 107 MiB (10%)
Alignment                                : Aligned on interleaves
Interleave, duration                     : 160 ms (4.00 video frames)
Interleave, preload duration             : 216 ms


[color=red]Plot:[/color]

In Alaska, an oil drilling team struggle to survive after a plane crash strands them in the wild. 
Hunting the humans are a pack of wolves who see them as intruders. 


[color=red]Screens:[/color]

[IMG]http://i.imgur.com/BEA0x.png[/IMG]

[IMG]http://i.imgur.com/uhENX.png[/IMG]

[IMG]http://i.imgur.com/5ZaTH.png[/IMG]

[IMG]http://i.imgur.com/1Yf98.png[/IMG]


[b][color=red]Release Notes:[/color][/b]

WE DONT RELEASE EVERYTHiNG TO OTHERS SiTES YOU WANT MORE OF OUR STUFF COME FiND US AT .......

WE ARE LOOKING FOR SUPPLiERS BLURAY, CAM, R5, PRE RETAiL DVD GOT SOMETHiNG WE MiGHT LiKE WHEN YOU FiND US TELL US.......


[center][b][color=red]GREETZ:[/color][/b]

Twisted | Bigguy | CTFX | Whitestag13 | THoRN | SANTi | PA4U2C | Jungledave | mtyy | Dreamer
| marsby | cld | Stortrapp | rizal | mannilim | Rock | Ulap | centserick2 | Galactica |
musikera | Tukmol | rock3r | canislupus | sickie | fun2knytz | lilyrose
 RiZAL Team Release | TRiNiTY | LEGi0N | LEGiTiMATE | HiVE-CM8 | BHRG | DTRG 
  CrEwSaDe | Rx | LKRG | THC | aTLas | SiC | AbSurdiTy 

[img]http://i824.photobucket.com/albums/zz161/akosipalos/PRESTiGE-3.png[/img]

[b][color=red]PRESTiGE[/color] is the level of respect at which one is regarded by others....RIzE Above Or Sink Below...[/b]
[/center][/pre]